<?xml version="1.0" encoding="UTF-8" standalone="no"?>
<svg
   width="2639.4233"
   height="450"
   viewBox="0 0 2639.4232 450"
   fill="none"
   version="1.1"
   id="svg3"
   sodipodi:docname="logo_new.svg"
   xml:space="preserve"
   inkscape:export-filename="logo_new1.svg"
   inkscape:export-xdpi="96"
   inkscape:export-ydpi="96"
   inkscape:version="1.4.2 (f4327f4, 2025-05-13)"
   xmlns:inkscape="http://www.inkscape.org/namespaces/inkscape"
   xmlns:sodipodi="http://sodipodi.sourceforge.net/DTD/sodipodi-0.dtd"
   xmlns="http://www.w3.org/2000/svg"
   xmlns:svg="http://www.w3.org/2000/svg"><defs
     id="defs3" /><sodipodi:namedview
     id="namedview3"
     pagecolor="#ffffff"
     bordercolor="#000000"
     borderopacity="0.25"
     inkscape:showpageshadow="2"
     inkscape:pageopacity="0.0"
     inkscape:pagecheckerboard="true"
     inkscape:deskcolor="#d1d1d1"
     inkscape:antialias-rendering="true"
     labelstyle="below"
     showguides="true"
     inkscape:zoom="0.11529516"
     inkscape:cx="1487.4866"
     inkscape:cy="212.49808"
     inkscape:window-width="1920"
     inkscape:window-height="991"
     inkscape:window-x="-9"
     inkscape:window-y="-9"
     inkscape:window-maximized="1"
     inkscape:current-layer="svg3"
     inkscape:lockguides="false"
     showgrid="true"
     inkscape:document-units="px"><sodipodi:guide
       position="884.93535,530.4934"
       orientation="0,-1"
       id="guide23"
       inkscape:locked="false" /><sodipodi:guide
       position="760.25535,182.47357"
       orientation="0,-1"
       id="guide32"
       inkscape:locked="false" /><sodipodi:guide
       position="-5.1714493,646.50001"
       orientation="0,2394.688"
       id="guide33"
       inkscape:locked="false" /><sodipodi:guide
       position="2389.5167,646.50001"
       orientation="581,0"
       id="guide34"
       inkscape:locked="false" /><sodipodi:guide
       position="2389.5167,65.499999"
       orientation="0,-2394.688"
       id="guide35"
       inkscape:locked="false" /><sodipodi:guide
       position="-5.1714493,65.499999"
       orientation="-581,0"
       id="guide36"
       inkscape:locked="false" /><sodipodi:guide
       position="-5.1714493,646.50001"
       orientation="0,2394.688"
       id="guide37"
       inkscape:locked="false" /><sodipodi:guide
       position="2389.5167,646.50001"
       orientation="581,0"
       id="guide38"
       inkscape:locked="false" /><sodipodi:guide
       position="2389.5167,65.499999"
       orientation="0,-2394.688"
       id="guide39"
       inkscape:locked="false" /><sodipodi:guide
       position="-5.1714493,65.499999"
       orientation="-581,0"
       id="guide40"
       inkscape:locked="false" /><inkscape:page
       x="8.3349491e-08"
       y="0"
       width="2639.4233"
       height="450"
       id="page2"
       margin="0"
       bleed="0" /></sodipodi:namedview><path
     d="m 702.70355,405.125 c -24.375,0 -45.859,-5.469 -64.453,-16.406 -18.438,-10.938 -32.813,-26.094 -43.125,-45.469 -10.156,-19.375 -15.235,-41.797 -15.235,-67.266 0,-25.468 5.079,-47.968 15.235,-67.5 10.312,-19.531 24.687,-34.765 43.125,-45.703 18.594,-10.937 40.078,-16.406 64.453,-16.406 15.937,0 30.625,2.422 44.063,7.266 13.593,4.687 25.39,11.328 35.39,19.921 10.156,8.594 18.281,18.75 24.375,30.469 6.094,11.719 9.766,24.688 11.016,38.907 h -63.281 c -0.938,-6.563 -2.813,-12.422 -5.626,-17.579 -2.656,-5.312 -6.171,-9.843 -10.546,-13.593 -4.219,-3.907 -9.219,-6.875 -15,-8.907 -5.625,-2.187 -12.11,-3.281 -19.454,-3.281 -12.031,0 -22.421,3.125 -31.171,9.375 -8.75,6.25 -15.469,15.078 -20.157,26.485 -4.531,11.406 -6.796,24.921 -6.796,40.546 0,15.469 2.265,28.907 6.796,40.313 4.688,11.406 11.328,20.234 19.922,26.484 8.75,6.094 19.219,9.141 31.406,9.141 7.344,0 13.829,-1.016 19.454,-3.047 5.625,-2.031 10.468,-4.922 14.531,-8.672 4.219,-3.906 7.656,-8.515 10.312,-13.828 2.657,-5.469 4.61,-11.563 5.86,-18.281 h 63.75 c -0.938,14.062 -4.453,27.031 -10.547,38.906 -5.938,11.719 -13.984,21.953 -24.141,30.703 -10.156,8.594 -22.031,15.313 -35.625,20.156 -13.594,4.844 -28.437,7.266 -44.531,7.266 z m 203.334,-144.141 V 399.5 h -65.156 V 50.281 h 65.156 V 215.75 h -12.89 c 7.969,-21.875 19.14,-38.828 33.515,-50.859 14.532,-12.032 32.891,-18.047 55.079,-18.047 17.497,0 32.73705,3.828 45.70705,11.484 13.12,7.5 23.36,18.516 30.7,33.047 7.34,14.531 11.01,32.266 11.01,53.203 V 399.5 h -65.15 V 256.062 c 0,-17.343 -4.14005,-30.468 -12.42405,-39.374 -8.125,-8.907 -19.687,-13.36 -34.687,-13.36 -10,0 -18.828,2.031 -26.485,6.094 -7.656,4.062 -13.671,10.312 -18.046,18.75 -4.219,8.437 -6.329,19.375 -6.329,32.812 z m 274.58105,142.5 c -16.4,0 -31.01,-2.734 -43.82,-8.203 -12.82,-5.469 -22.97,-13.672 -30.47,-24.609 -7.35,-10.938 -11.02,-24.61 -11.02,-41.016 0,-14.062 2.58,-25.703 7.74,-34.922 5.31,-9.375 12.42,-16.796 21.32,-22.265 9.07,-5.625 19.46,-9.844 31.18,-12.657 11.71,-2.968 23.9,-5.156 36.56,-6.562 15.31,-1.562 27.42,-2.969 36.33,-4.219 8.9,-1.406 15.31,-3.437 19.22,-6.093 3.9,-2.657 5.85,-6.719 5.85,-12.188 v -1.641 c 0,-6.562 -1.71,-12.265 -5.15,-17.109 -3.44,-5 -8.28,-8.906 -14.53,-11.719 -6.25,-2.812 -13.83,-4.219 -22.74,-4.219 -8.9,0 -16.79,1.407 -23.67,4.219 -6.72,2.813 -12.11,6.797 -16.17,11.953 -3.91,5 -6.17,10.86 -6.8,17.578 h -61.64 c 1.1,-16.874 6.1,-31.484 15,-43.828 9.06,-12.343 21.56,-21.953 37.5,-28.828 16.1,-6.875 35.24,-10.312 57.42,-10.312 16.57,0 31.33,1.953 44.3,5.859 13.13,3.906 24.14,9.531 33.05,16.875 9.06,7.344 15.93,16.25 20.62,26.719 4.69,10.312 7.03,21.953 7.03,34.922 V 399.5 h -63.51 v -34.922 h -0.94 c -4.22,7.813 -9.53,14.688 -15.94,20.625 -6.25,5.781 -14.06,10.313 -23.43,13.594 -9.22,3.125 -20.32,4.687 -33.29,4.687 z m 17.35,-46.172 c 11.72,0 21.72,-2.109 30,-6.328 8.44,-4.375 14.84,-10.234 19.22,-17.578 4.53,-7.344 6.79,-15.625 6.79,-24.844 v -25.781 c -2.03,1.25 -4.76,2.422 -8.2,3.516 -3.28,0.937 -7.27,1.875 -11.95,2.812 -4.53,0.938 -9.53,1.875 -15,2.813 -5.32,0.937 -10.86,1.797 -16.64,2.578 -8.13,1.25 -15.55,3.203 -22.27,5.859 -6.72,2.657 -12.11,6.25 -16.17,10.782 -3.91,4.375 -5.86,10.078 -5.86,17.109 0,5.938 1.64,11.172 4.92,15.703 3.44,4.375 8.13,7.735 14.06,10.078 5.94,2.188 12.97,3.281 21.1,3.281 z M 1491.0686,152 v 51.562 h -158.67 V 152 Z m -115.55,-67.5 h 64.92 v 240.703 c 0,8.594 1.72,14.531 5.16,17.813 3.44,3.281 9.92,4.922 19.45,4.922 3.91,0 8.44,0 13.6,0 5.31,0 9.45,0 12.42,0 V 399.5 c -4.22,0 -9.92,0 -17.11,0 -7.03,0 -14.14,0 -21.33,0 -26.41,0 -45.86,-5.234 -58.36,-15.703 -12.5,-10.469 -18.75,-26.641 -18.75,-48.516 z m 203.34,315 -76.41,-247.5 h 68.2 l 23.91,89.531 c 4.53,17.657 8.9,35.86 13.12,54.61 4.22,18.75 8.44,37.187 12.66,55.312 h -8.91 c 4.53,-18.125 9.07,-36.562 13.6,-55.312 4.68,-18.75 9.37,-36.953 14.06,-54.61 l 24.84,-89.531 h 59.07 l 24.37,89.531 c 4.84,17.657 9.53,35.86 14.06,54.61 4.53,18.75 9.07,37.187 13.6,55.312 h -9.14 c 4.37,-18.125 8.59,-36.562 12.65,-55.312 4.22,-18.75 8.52,-36.953 12.89,-54.61 l 23.91,-89.531 h 68.91 l -76.41,247.5 h -67.27 l -29.29,-100.312 c -2.82,-9.844 -5.55,-19.844 -8.21,-30 -2.65,-10.313 -5.31,-20.626 -7.96,-30.938 -2.5,-10.469 -5.16,-20.781 -7.97,-30.938 h 12.65 c -2.65,10.157 -5.39,20.469 -8.2,30.938 -2.66,10.312 -5.31,20.625 -7.97,30.938 -2.5,10.156 -5.23,20.156 -8.2,30 l -29.77,100.312 z m 425.75,5.625 c -24.69,0 -46.4,-5.391 -65.16,-16.172 -18.59,-10.781 -33.12,-25.859 -43.59,-45.234 -10.31,-19.375 -15.47,-41.953 -15.47,-67.735 0,-25.781 5.16,-48.359 15.47,-67.734 10.47,-19.531 25,-34.688 43.59,-45.469 18.76,-10.937 40.47,-16.406 65.16,-16.406 24.84,0 46.56,5.469 65.16,16.406 18.59,10.781 33.04,25.938 43.36,45.469 10.47,19.375 15.7,41.953 15.7,67.734 0,25.782 -5.23,48.36 -15.7,67.735 -10.32,19.375 -24.77,34.453 -43.36,45.234 -18.6,10.781 -40.32,16.172 -65.16,16.172 z m 0,-53.437 c 11.88,0 22.19,-2.969 30.94,-8.907 8.75,-6.093 15.55,-14.843 20.39,-26.25 4.84,-11.406 7.27,-24.922 7.27,-40.547 0,-15.937 -2.43,-29.531 -7.27,-40.781 -4.84,-11.406 -11.64,-20.156 -20.39,-26.25 -8.75,-6.094 -19.06,-9.141 -30.94,-9.141 -11.72,0 -22.03,3.047 -30.94,9.141 -8.75,6.094 -15.54,14.844 -20.39,26.25 -4.84,11.25 -7.26,24.844 -7.26,40.781 0,15.782 2.42,29.375 7.26,40.782 4.85,11.25 11.64,19.922 20.39,26.015 8.91,5.938 19.22,8.907 30.94,8.907 z m 262.16,53.437 c -24.68,0 -46.4,-5.391 -65.15,-16.172 -18.6,-10.781 -33.13,-25.859 -43.6,-45.234 -10.31,-19.375 -15.47,-41.953 -15.47,-67.735 0,-25.781 5.16,-48.359 15.47,-67.734 10.47,-19.531 25,-34.688 43.6,-45.469 18.75,-10.937 40.47,-16.406 65.15,-16.406 24.85,0 46.57,5.469 65.16,16.406 18.59,10.781 33.05,25.938 43.36,45.469 10.47,19.375 15.7,41.953 15.7,67.734 0,25.782 -5.23,48.36 -15.7,67.735 -10.31,19.375 -24.77,34.453 -43.36,45.234 -18.59,10.781 -40.31,16.172 -65.16,16.172 z m 0,-53.437 c 11.88,0 22.19,-2.969 30.94,-8.907 8.75,-6.093 15.55,-14.843 20.39,-26.25 4.85,-11.406 7.27,-24.922 7.27,-40.547 0,-15.937 -2.42,-29.531 -7.27,-40.781 -4.84,-11.406 -11.64,-20.156 -20.39,-26.25 -8.75,-6.094 -19.06,-9.141 -30.94,-9.141 -11.72,0 -22.03,3.047 -30.93,9.141 -8.75,6.094 -15.55,14.844 -20.39,26.25 -4.85,11.25 -7.27,24.844 -7.27,40.781 0,15.782 2.42,29.375 7.27,40.782 4.84,11.25 11.64,19.922 20.39,26.015 8.9,5.938 19.21,8.907 30.93,8.907 z M 2553.3086,152 v 51.562 h -158.67 V 152 Z m -115.55,-67.5 h 64.93 v 240.703 c 0,8.594 1.71,14.531 5.15,17.813 3.44,3.281 9.92,4.922 19.46,4.922 3.9,0 8.43,0 13.59,0 5.31,0 9.45,0 12.42,0 V 399.5 c -4.22,0 -9.92,0 -17.11,0 -7.03,0 -14.14,0 -21.33,0 -26.4,0 -45.86,-5.234 -58.36,-15.703 -12.5,-10.469 -18.75,-26.641 -18.75,-48.516 z"
     fill="#040101"
     id="path3"
     style="display:none;fill:#00ff00" /><g
     id="g32"
     transform="matrix(1.1272567,0,0,1.1272567,-60.004908,-104.66919)"><path
       d="m 707.42261,469.87451 q -37.03125,0 -65.15625,-16.17187 -27.89063,-16.40625 -43.59375,-45.46875 -15.46875,-29.29688 -15.46875,-67.5 0,-38.4375 15.46875,-67.5 15.70312,-29.29688 43.59375,-45.70313 28.125,-16.40625 65.15625,-16.40625 24.375,0 45,7.26563 20.625,7.03125 35.85937,20.15625 15.46875,13.125 24.60938,31.17187 9.14062,17.8125 10.78125,39.60938 h -66.79688 q -1.40625,-9.60938 -5.39062,-17.34375 -3.75,-7.73438 -9.84375,-13.35938 -6.09375,-5.625 -14.53125,-8.67187 -8.20313,-3.04688 -18.75,-3.04688 -17.34375,0 -29.76563,9.14063 -12.42187,8.90625 -19.21875,25.54687 -6.5625,16.40625 -6.5625,39.14063 0,22.5 6.5625,38.90625 6.79688,16.40625 19.21875,25.54687 12.42188,8.90625 29.76563,8.90625 10.54687,0 18.75,-3.04687 8.20312,-3.04688 14.0625,-8.67188 6.09375,-5.625 9.84375,-13.35937 3.75,-7.96875 5.39062,-17.8125 h 67.26563 q -1.17188,21.5625 -10.3125,39.60937 -8.90625,17.8125 -24.375,31.17188 -15.46875,13.35937 -36.32813,20.625 -20.625,7.26562 -45.23437,7.26562 z"
       id="text29"
       style="font-weight:bold;font-size:480px;line-height:0;font-family:Inter;-inkscape-font-specification:'Inter Bold';letter-spacing:0px;fill:#000000;stroke-width:4.00261"
       aria-label="c"
       inkscape:export-filename="logo_new.svg"
       inkscape:export-xdpi="96"
       inkscape:export-ydpi="96" /><path
       d="M 929.61011,326.67139 V 464.24951 H 860.46948 V 115.03076 h 69.14063 v 166.17188 h -12.89063 q 11.71875,-32.8125 33.51563,-51.09375 21.79687,-18.51563 55.54689,-18.51563 26.4844,0 45.9375,11.48438 19.4531,11.25 30,33.04687 10.7812,21.79688 10.7812,53.20313 v 154.92187 h -68.9062 V 321.98389 q 0,-24.84375 -11.9531,-37.73438 -11.71879,-13.125 -33.51567,-13.125 -14.29687,0 -25.3125,5.85938 -11.01562,5.85937 -17.10937,18.28125 -6.09375,12.1875 -6.09375,31.40625 z"
       id="text28"
       style="font-weight:bold;font-size:480px;line-height:0;font-family:Inter;-inkscape-font-specification:'Inter Bold';letter-spacing:0px;fill:#000000;stroke-width:4.00261"
       aria-label="h" /><path
       d="m 1217.1882,468.46826 q -24.6093,0 -43.8281,-8.20312 -19.2187,-8.20313 -30.2344,-24.60938 -11.0156,-16.64062 -11.0156,-41.25 0,-20.85937 7.7344,-34.6875 7.7344,-14.0625 21.0937,-22.5 13.5938,-8.67187 30.9375,-13.125 17.5782,-4.45312 36.7969,-6.09375 22.7344,-2.34375 36.0938,-4.45312 13.3593,-2.10938 19.2187,-6.09375 5.8594,-3.98438 5.8594,-11.95313 v -1.64062 q 0,-9.14063 -4.9219,-15.9375 -4.9219,-7.03125 -14.0625,-11.01563 -8.9062,-3.98437 -21.5625,-3.98437 -12.6562,0 -22.5,3.98437 -9.6094,3.98438 -15.2344,11.25 -5.625,7.26563 -6.5625,16.875 h -64.9218 q 1.6406,-25.54687 15,-44.29687 13.5937,-18.75 37.9687,-28.82813 24.375,-10.3125 58.3594,-10.3125 25.3125,0 45.2344,5.85938 19.9218,5.625 33.5156,16.64062 13.8281,11.01563 20.8594,26.71875 7.0312,15.70313 7.0312,35.625 v 167.8125 h -67.5 v -34.92187 h -0.9375 q -6.5625,12.1875 -16.1719,20.85937 -9.6093,8.67188 -23.4375,13.59375 -13.8281,4.6875 -32.8125,4.6875 z m 19.2188,-48.04687 q 16.6406,0 28.5937,-6.09375 12.1875,-6.09375 18.75,-16.64063 6.5625,-10.54687 6.5625,-23.90625 v -24.84375 q -3.0468,1.64063 -7.9687,3.28125 -4.9219,1.40625 -11.4844,2.8125 -6.5625,1.17188 -14.2969,2.57813 -7.7343,1.40625 -15.9375,2.57812 -11.9531,1.875 -21.5625,5.85938 -9.6093,3.75 -15.2343,10.3125 -5.625,6.32812 -5.625,16.17187 0,8.67188 4.6875,15 4.6875,6.32813 13.3593,9.60938 8.6719,3.28125 20.1563,3.28125 z"
       id="text27"
       style="font-weight:bold;font-size:480px;line-height:0;font-family:Inter;-inkscape-font-specification:'Inter Bold';letter-spacing:0px;fill:#000000;stroke-width:4.00261"
       aria-label="a" /><path
       d="m 1549.0632,216.74951 v 54.14063 h -162.4218 v -54.14063 z m -119.7656,-67.5 h 69.1406 v 238.59375 q 0,12.42188 4.9219,17.34375 5.1563,4.92188 19.2188,4.92188 5.8593,0 13.8281,0 8.2031,0 12.6562,0 v 54.14062 q -6.3281,0 -17.5781,0 -11.25,0 -22.7344,0 -40.7812,0 -60.2343,-15.9375 -19.2188,-15.9375 -19.2188,-49.6875 z"
       id="text26"
       style="font-weight:bold;font-size:480px;line-height:0;font-family:Inter;-inkscape-font-specification:'Inter Bold';letter-spacing:0px;fill:#000000;stroke-width:4.00261"
       aria-label="t" /><path
       d="m 1652.8914,326.67139 v 137.57812 h -69.1407 V 115.03076 h 69.1407 v 166.17188 h -12.8907 q 11.7188,-32.8125 33.5157,-51.09375 21.7968,-18.51563 55.5468,-18.51563 26.4844,0 45.9375,11.48438 19.4532,11.25 30,33.04687 10.7813,21.79688 10.7813,53.20313 v 154.92187 h -68.9063 V 321.98389 q 0,-24.84375 -11.9531,-37.73438 -11.7187,-13.125 -33.5156,-13.125 -14.2969,0 -25.3125,5.85938 -11.0156,5.85937 -17.1094,18.28125 -6.0937,12.1875 -6.0937,31.40625 z"
       id="text25"
       style="font-weight:bold;font-size:480px;line-height:0;font-family:Inter;-inkscape-font-specification:'Inter Bold';letter-spacing:0px;fill:#000000;stroke-width:4.00261"
       aria-label="h" /><path
       d="m 1951.7195,469.40576 q -26.25,0 -45.9375,-11.25 -19.4531,-11.48437 -30.2344,-33.28125 -10.7812,-22.03125 -10.7812,-53.20312 V 216.74951 h 69.1406 v 142.26563 q 0,24.84375 11.9531,37.96875 11.9531,12.89062 33.5156,12.89062 14.2969,0 25.0782,-5.85937 11.0156,-5.85938 17.1093,-18.28125 6.3282,-12.42188 6.3282,-31.40625 V 216.74951 h 68.9062 v 247.5 h -67.7344 v -64.45312 h 11.7188 q -11.7188,32.8125 -33.5156,51.32812 -21.5625,18.28125 -55.5469,18.28125 z"
       id="text24"
       style="font-weight:bold;font-size:480px;line-height:0;font-family:Inter;-inkscape-font-specification:'Inter Bold';letter-spacing:0px;fill:#000000;stroke-width:4.00261"
       aria-label="u" /><path
       d="m 2287.5789,469.40576 q -16.1719,0 -30.2344,-4.6875 -14.0625,-4.6875 -25.0781,-14.29687 -10.7813,-9.84375 -18.0469,-24.14063 h -0.2344 v 37.96875 H 2145.782 V 115.03076 h 69.1406 v 135.9375 h 0.2344 q 7.9687,-13.35937 18.75,-22.03125 10.7812,-8.67187 24.375,-12.89062 13.8281,-4.45313 29.7656,-4.45313 31.6406,0 55.5469,16.40625 24.1406,16.17188 37.5,45.23438 13.5937,28.82812 13.5937,67.03125 0,38.67187 -13.3593,67.73437 -13.3594,29.0625 -37.2657,45.23438 -23.9062,16.17187 -56.4843,16.17187 z m -17.8125,-56.25 q 16.875,0 29.0625,-8.4375 12.4218,-8.67187 19.2187,-24.84375 7.0313,-16.40625 7.0313,-39.60937 0,-23.20313 -7.0313,-39.375 -6.7969,-16.17188 -19.2187,-24.84375 -12.1875,-8.67188 -29.0625,-8.67188 -17.3438,0 -30.7032,9.14063 -13.125,8.90625 -20.3906,25.3125 -7.0312,16.17187 -7.0312,38.4375 0,22.03125 7.0312,38.4375 7.2656,16.40625 20.3906,25.54687 13.3594,8.90625 30.7032,8.90625 z"
       id="text23"
       style="font-weight:bold;font-size:480px;line-height:0;font-family:Inter;-inkscape-font-specification:'Inter Bold';letter-spacing:0px;fill:#000000;stroke-width:4.00261"
       aria-label="b" /></g><g
     id="g2"
     transform="translate(-5.1714494,12.732435)"><rect
       style="display:inline;fill:#ffffff;fill-opacity:1;stroke:#550000;stroke-width:0;stroke-opacity:1"
       id="rect15"
       width="416.9783"
       height="330.4425"
       x="69.922462"
       y="48.061241"
       rx="0"
       ry="0"
       inkscape:label="rect15" /><g
       id="g1"
       inkscape:label="ojos"
       style="fill:#2781f6;fill-opacity:1"
       transform="matrix(57.846199,0,0,57.846199,845.34579,-282.37908)"><g
         id="path2-4-0"
         inkscape:label="der"
         style="opacity:1;fill:#2781f6;fill-opacity:1"><path
           style="baseline-shift:baseline;display:inline;overflow:visible;vector-effect:none;fill:#2781f6;fill-opacity:1;enable-background:accumulate;stop-color:#000000;stop-opacity:1"
           d="m -10.544922,6.7988281 c -0.265351,0 -0.480469,0.2171333 -0.480469,0.4824219 v 0.9453125 c 0,0.2652886 0.215118,0.4804688 0.480469,0.4804688 0.265301,0 0.482422,-0.2151675 0.482422,-0.4804688 V 7.28125 c 0,-0.2653013 -0.217121,-0.4824219 -0.482422,-0.4824219 z"
           id="path7"
           sodipodi:nodetypes="sssssss" /></g><g
         id="path1-1-5-9"
         inkscape:label="izq"
         style="opacity:1;fill:#2781f6;fill-opacity:1"><path
           style="baseline-shift:baseline;display:inline;overflow:visible;vector-effect:none;fill:#2781f6;fill-opacity:1;enable-background:accumulate;stop-color:#000000;stop-opacity:1"
           d="m -11.851563,6.7988281 c -0.26535,0 -0.482421,0.2171333 -0.482421,0.4824219 v 0.9453125 c 0,0.2652886 0.217071,0.4804688 0.482421,0.4804688 0.265302,0 0.480469,-0.2151675 0.480469,-0.4804688 V 7.28125 c 0,-0.2653013 -0.215167,-0.4824219 -0.480469,-0.4824219 z"
           id="path9"
           sodipodi:nodetypes="sssssss" /></g></g><g
       id="path3-4-3-4"
       inkscape:label="cuerpo"
       style="display:inline;fill:#2781f6;fill-opacity:1"
       transform="matrix(57.84087,0,0,57.84087,845.26839,-282.35424)"><path
         style="baseline-shift:baseline;clip-rule:evenodd;display:inline;overflow:visible;vector-effect:none;fill:#2781f6;fill-opacity:1;fill-rule:evenodd;enable-background:accumulate;stop-color:#000000;stop-opacity:1"
         d="m -12.234375,4.7949219 c -0.336158,0.028255 -0.660394,0.105423 -0.986332,0.181644 -0.300081,0.1139938 -0.592035,0.2385512 -0.824219,0.4980469 -0.4426,0.5281423 -0.449935,1.1746308 -0.472703,1.8300785 -0.02588,0.8370998 0.02585,1.5854015 0.11914,2.3964844 0.0246,0.3481653 0.09458,0.6903703 0.156296,1.0331993 0.07553,0.306625 0.205052,0.60493 0.451172,0.849609 0.244745,0.243247 0.540659,0.371472 0.845703,0.445313 0.287546,0.0695 0.615501,0.104563 1,0.146484 1.294036,0.174449 2.5938156,0.118341 3.8886774,0.002 h 0.00195 l 0.019531,-0.002 c 0.4333593,-0.06861 0.8448638,-0.107893 1.2656251,-0.126951 0.1483523,0.01934 0.3293325,0.05277 0.5039062,0.08789 0.3491475,0.07024 0.6679687,0.148437 0.6679688,0.148437 l 0.6269531,0.15625 -0.296875,-0.574218 c 0,0 -0.1316882,-0.256178 -0.2539063,-0.542969 -0.061109,-0.143396 -0.1185623,-0.295647 -0.1542968,-0.416016 -0.065731,-0.380654 0.072421,-0.789779 0.1289059,-1.2148432 0.1182458,-0.8017632 0.1701333,-1.6086592 0.1835907,-2.4179689 0.00319,-0.6636167 0.010094,-1.2691776 -0.4296875,-1.7773437 C -6.0268263,5.2278734 -6.3218067,5.0719904 -6.6328125,4.9804687 -6.9215535,4.8954941 -7.2464097,4.8516745 -7.6210937,4.7988281 l -0.023437,-0.00195 C -9.2479391,4.5706478 -10.709622,4.6689504 -12.234375,4.7949219 Z m 0.177731,1.2460937 c 1.533673,-0.2190467 2.7350215,-0.2118192 4.2363285,0 0.4036359,0.056946 0.6628636,0.09669 0.8320313,0.1464844 0.1560044,0.045904 0.1919758,0.074452 0.2441406,0.1347656 0.059372,0.068568 0.076384,0.097307 0.097656,0.2441406 0.021272,0.1468334 0.026856,0.3963264 0.025391,0.7910157 -0.0027,0.7240996 -0.072962,1.3886429 -0.171875,2.15625 -0.055537,0.4306846 -0.092702,0.4612369 -0.090883,0.6948041 9.784e-4,0.1256 0.00567,0.257177 0.054687,0.372822 0.1061118,0.250356 0.4323115,0.581994 0.4976538,0.646362 -0.084008,-0.07417 -0.492415,-0.297692 -0.7677064,-0.36449 -0.097732,-0.02371 -0.2010194,-0.01297 -0.3015401,-0.0099 -0.264592,0.0081 -0.3746756,0.02966 -0.7906494,0.07444 -1.3196622,0.141973 -2.2815113,0.141447 -3.5957023,-0.002 -0.410941,-0.04483 -0.683063,-0.07556 -0.863282,-0.11914 -0.169562,-0.04102 -0.209068,-0.07066 -0.253906,-0.115235 -0.04344,-0.04318 -0.07444,-0.08429 -0.117187,-0.257812 -0.04527,-0.183749 -0.07899,-0.4599814 -0.126954,-0.8769534 -0.08916,-0.7752214 -0.134811,-1.4536358 -0.111328,-2.2128906 0.01215,-0.3930487 0.0252,-0.6418914 0.05078,-0.7890625 0.02558,-0.1471711 0.04428,-0.1781834 0.101562,-0.2421875 0.05122,-0.057243 0.08575,-0.084329 0.238281,-0.1289063 0.1653,-0.04831 0.419518,-0.086449 0.8125,-0.1425781 z"
         id="path5"
         sodipodi:nodetypes="aacccccccccccscccssccccccaccccsccaacaacccccccscccc" /></g></g></svg>
